HIERARCHY
ROOT Hips
{
  OFFSET 265.287 66.7526 -254.649
  CHANNELS 6 Xposition Yposition Zposition Zrotation Xrotation Yrotation
  JOINT LeftUpLeg
  {
    OFFSET 8.64259 1.95398 -2.38835
    CHANNELS 3 Zrotation Xrotation Yrotation
    JOINT LeftLeg
    {
      OFFSET 43.7702 0 0
      CHANNELS 3 Zrotation Xrotation Yrotation
      JOINT LeftFoot
      {
        OFFSET 40.6238 0 0
        CHANNELS 3 Zrotation Xrotation Yrotation
        JOINT LeftToeBase
        {
          OFFSET 12.7242 0 0
          CHANNELS 3 Zrotation Xrotation Yrotation
          End Site
          {
            OFFSET 0 0 0
          }
        }
      }
    }
  }
  JOINT RightUpLeg
  {
    OFFSET -8.2249 1.95398 -2.59336
    CHANNELS 3 Zrotation Xrotation Yrotation
    JOINT RightLeg
    {
      OFFSET 43.5653 0 0
      CHANNELS 3 Zrotation Xrotation Yrotation
      JOINT RightFoot
      {
        OFFSET 40.6238 0 0
        CHANNELS 3 Zrotation Xrotation Yrotation
        JOINT RightToeBase
        {
          OFFSET 12.7242 0 0
          CHANNELS 3 Zrotation Xrotation Yrotation
          End Site
          {
            OFFSET 0 0 0
          }
        }
      }
    }
  }
  JOINT Spine
  {
    OFFSET 0.165834 0.87714 6.61349
    CHANNELS 3 Zrotation Xrotation Yrotation
    JOINT Spine1
    {
      OFFSET 7.38963 1.71661e-005 0
      CHANNELS 3 Zrotation Xrotation Yrotation
      JOINT Spine2
      {
        OFFSET 11.9445 1.14441e-005 0
        CHANNELS 3 Zrotation Xrotation Yrotation
        JOINT Spine3
        {
          OFFSET 14.7254 4.19617e-005 0
          CHANNELS 3 Zrotation Xrotation Yrotation
          JOINT Spine4
          {
            OFFSET 10.9679 0 0
            CHANNELS 3 Zrotation Xrotation Yrotation
            JOINT RightShoulder
            {
              OFFSET 2.46616 -1.6653 3.69651
              CHANNELS 3 Zrotation Xrotation Yrotation
              JOINT RightArm
              {
                OFFSET 13.0012 0 0
                CHANNELS 3 Zrotation Xrotation Yrotation
                JOINT RightForeArm
                {
                  OFFSET 28.7848 1.52588e-005 0
                  CHANNELS 3 Zrotation Xrotation Yrotation
                  JOINT RightHand
                  {
                    OFFSET 26.5688 1.52588e-005 0
                    CHANNELS 3 Zrotation Xrotation Yrotation
                    End Site
                    {
                      OFFSET 0 0 0
                    }
                  }
                }
              }
            }
            JOINT LeftShoulder
            {
              OFFSET 2.38034 -1.29275 -3.7523
              CHANNELS 3 Zrotation Xrotation Yrotation
              JOINT LeftArm
              {
                OFFSET 16.3182 6.10351e-005 0
                CHANNELS 3 Zrotation Xrotation Yrotation
                JOINT LeftForeArm
                {
                  OFFSET 27.0901 0 0
                  CHANNELS 3 Zrotation Xrotation Yrotation
                  JOINT LeftHand
                  {
                    OFFSET 24.5451 1.52588e-005 0
                    CHANNELS 3 Zrotation Xrotation Yrotation
                    End Site
                    {
                      OFFSET 0 0 0
                    }
                  }
                }
              }
            }
            JOINT Neck
            {
              OFFSET 5.0226 -0.0266342 0
              CHANNELS 3 Zrotation Xrotation Yrotation
              JOINT Head
              {
                OFFSET 6.69364 2.86102e-005 0
                CHANNELS 3 Zrotation Xrotation Yrotation
                End Site
                {
                  OFFSET 0 0 0
                }
              }
            }
          }
        }
      }
    }
  }
}
MOTION
Frames:	6
Frame Time:	0.0416667
-6.20621 96.7913 2.6472 109.276 -87.5523 108.713 -173.568 2.31316 91.2621 -12.7233 8.29572 2.63812 66.2428 2.7289 -0.106521 29.4987 -0.3691 1.36237 175.226 2.03969 87.9656 -12.5685 -4.11254 -0.81447 66.5244 -2.89707 0.651695 29.5838 -0.147374 0.284696 -0.0911305 7.06136 -90.2321 12.7504 -0.291937 -0.429317 1.07942 -0.310545 -0.416063 -21.4552 -0.149418 -0.497207 -1.44261 -0.149415 -0.497207 99.4596 -52.4213 -86.2611 21.9263 -12.9946 -19.136 0.858227 -19.096 -17.3455 -11.9785 -0.394129 -1.41311 -84.5028 -55.5576 87.3961 -18.0221 18.414 -32.3728 1.2328 27.0065 -8.78878 4.60138 -0.0239807 -3.30048 10.5402 0.0711454 7.52121 -10.2181 -1.54186 -2.16367 
-6.22543 96.7775 2.63223 107.273 -87.174 106.727 -173.59 2.42951 91.2916 -12.8564 8.80365 2.67202 66.1264 2.7157 0.0836063 29.7579 -0.426829 1.17205 175.174 1.89311 87.9879 -12.4108 -3.83674 -0.746819 66.4766 -2.90847 0.575374 29.733 -0.145919 0.0698425 -0.101395 7.08993 -90.2385 12.6932 -0.315272 -0.439527 1.02222 -0.334319 -0.425225 -21.5124 -0.168611 -0.513956 -1.49979 -0.168611 -0.513959 99.5114 -52.0736 -86.2 23.0878 -11.3613 -16.3703 1.30931 -19.0679 -15.3025 -11.4734 -0.422222 -0.937562 -84.3991 -55.4295 87.5296 -19.0752 16.5395 -29.7692 -0.534131 27.0565 -4.3295 5.31352 -0.0112223 -3.19366 10.6671 0.233522 7.45778 -10.3547 -1.40239 -1.69558 
-6.2131 96.7755 2.62278 100.508 -86.8563 99.9182 -173.654 2.67383 91.2416 -12.7245 8.94791 2.69253 66.1819 2.73182 -0.11264 29.3951 -0.298716 0.992598 175.144 2.19862 87.9759 -12.5005 -3.66817 -0.687956 66.3671 -2.85299 0.247866 29.7587 -0.186975 0.421972 -0.113608 7.12355 -90.227 12.626 -0.333953 -0.414514 0.955039 -0.351863 -0.39942 -21.5797 -0.193932 -0.495715 -1.56708 -0.193937 -0.495714 99.8943 -52.4743 -85.6018 23.4691 -9.78442 -13.2584 1.19571 -20.1624 -13.579 -11.1038 -0.349415 -1.58257 -84.1785 -55.2755 87.8278 -20.0478 14.4176 -27.0408 -1.19385 31.6445 -1.37195 4.19281 0.0666352 -1.63024 11.2535 0.151 7.51859 -10.3849 -1.5124 -2.07377 
-6.2668 96.7614 2.69147 98.5575 -86.8684 98.0472 -173.739 2.75397 91.2498 -12.7664 9.40003 2.79771 66.0433 2.77405 0.495622 29.8977 -0.475262 1.23478 175.256 2.33076 88.1187 -12.6184 -3.7228 -0.696692 66.1916 -2.75286 -0.0244434 30.3549 -0.269615 0.401675 -0.10791 7.17217 -90.2521 12.5286 -0.334404 -0.464899 0.857637 -0.354543 -0.44973 -21.677 -0.179229 -0.543908 -1.66433 -0.179223 -0.5439 100.001 -52.2664 -85.4495 24.0863 -8.80717 -9.31463 1.4597 -18.7134 -12.6928 -10.781 -0.381523 -1.12706 -84.1725 -55.0188 87.8099 -19.542 15.0088 -23.0139 -2.12318 30.9529 -1.12317 4.25441 0.010007 -2.65603 11.5468 0.226584 7.56648 -10.5694 -1.49259 -1.64201 
-6.26487 96.7594 2.70622 97.8029 -86.7458 97.318 -173.683 2.85906 91.3205 -12.8854 9.40061 2.7662 66.1173 2.76352 0.300429 29.8505 -0.461455 1.23705 175.326 2.07156 88.1762 -12.2073 -3.33817 -0.784301 66.5099 -2.92217 0.417011 29.6352 -0.155715 0.303208 -0.104035 7.2279 -90.2685 12.4171 -0.334322 -0.49799 0.746075 -0.355918 -0.482799 -21.7884 -0.169212 -0.575447 -1.77578 -0.169204 -0.575446 100.26 -52.4122 -85.0506 24.3142 -7.39691 -5.33773 1.50257 -18.2886 -11.6284 -9.97449 -0.307763 -1.63967 -83.951 -54.9432 88.1192 -19.8335 15.1599 -18.9887 -1.90823 30.9068 -2.08769 3.32848 0.0802053 -0.612612 11.2936 0.212431 7.5407 -9.82803 -1.50677 -1.41711 
-6.2295 96.7626 2.67942 97.8875 -86.9187 97.1475 -173.763 2.77638 91.0411 -12.7385 9.34767 2.65547 65.9091 2.73689 0.638886 29.8852 -0.449503 1.02286 175.123 2.57155 87.8401 -12.952 -3.83262 -0.692063 66.3475 -2.81505 -0.116884 30.3847 -0.297935 0.661443 -0.0967404 7.28174 -90.2448 12.3095 -0.308364 -0.453957 0.638567 -0.328052 -0.439954 -21.8961 -0.15768 -0.525646 -1.8834 -0.157684 -0.525649 100.45 -52.4611 -84.762 24.6397 -6.74974 -1.43173 1.80052 -16.8817 -11.5195 -10.4931 -0.419375 -0.559314 -83.4699 -54.8041 88.7955 -21.1157 14.4439 -14.8254 -0.683245 30.6122 -3.49534 0.525885 -0.0204777 -2.0943 11.468 0.224572 7.87198 -9.67705 -1.56035 -1.91606 
